<svg width="97" height="27" viewBox="0 0 97 27" fill="none" xmlns="http://www.w3.org/2000/svg">
<g clip-path="url(#clip0_2001_285)">
<path fill-rule="evenodd" clip-rule="evenodd" d="M9.86365 6.1437C7.85999 6.1437 6.3547 6.19534 5.24064 6.26361C3.94305 6.34312 3.10067 7.31215 3.18618 8.65681C3.2569 9.76867 3.37774 11.2687 3.58065 13.2707C3.8338 15.7685 4.06069 17.4837 4.24042 18.638C4.39504 19.6311 5.11899 20.29 6.10499 20.3429C6.99724 20.3909 8.21891 20.4279 9.86365 20.4279C11.5426 20.4279 12.7805 20.3894 13.6774 20.34C14.6167 20.2882 15.3076 19.6539 15.455 18.6908C15.6313 17.54 15.8639 15.8131 16.1476 13.2617C16.3874 11.1052 16.5183 9.54122 16.5868 8.41849C16.6605 7.21052 15.9137 6.35802 14.7217 6.27863C13.5874 6.20307 12.0121 6.1437 9.86365 6.1437ZM5.12669 4.40025C6.28491 4.32928 7.82875 4.27686 9.86365 4.27686C12.0454 4.27686 13.6627 4.33711 14.8455 4.41591C17.0756 4.56446 18.5837 6.31366 18.4483 8.53233C18.3774 9.69279 18.2434 11.2885 18.0011 13.4682C17.7153 16.0379 17.4795 17.7912 17.2984 18.9736C17.0223 20.7771 15.6324 22.102 13.7798 22.2039C12.843 22.2556 11.5702 22.2947 9.86365 22.2947C8.19172 22.2947 6.93619 22.2572 6.00505 22.2071C4.12244 22.106 2.68555 20.7739 2.39777 18.9255C2.21176 17.7309 1.98092 15.9816 1.72526 13.4591C1.52048 11.4387 1.39751 9.91492 1.32504 8.77542C1.17692 6.44625 2.75371 4.54567 5.12669 4.40025Z" fill="white"/>
<path fill-rule="evenodd" clip-rule="evenodd" d="M9.93592 13.732C9.90281 13.689 9.87018 13.6456 9.83804 13.6019C9.56164 13.2254 9.32137 12.8208 9.12234 12.3931C8.86596 11.8421 9.09917 11.3411 9.5073 11.1283C9.97373 10.8851 10.5917 11.1283 10.8134 11.6049C10.9972 12 11.2286 12.3684 11.5004 12.7027C12.3478 13.7448 13.5868 14.455 14.9929 14.6086C15.1817 14.6292 15.3735 14.6398 15.5677 14.6398C15.8065 14.6398 16.0414 14.6239 16.2717 14.5929C16.3646 14.5804 16.4579 14.5795 16.5495 14.5891C17.0686 14.6436 17.5315 15.0355 17.5315 15.567C17.5315 15.9604 17.2721 16.312 16.8859 16.3845C16.7649 16.4072 16.6429 16.4268 16.5199 16.4433C16.2084 16.4851 15.8906 16.5066 15.5677 16.5066C15.3653 16.5066 15.1648 16.4981 14.9666 16.4815C12.9204 16.31 11.1206 15.2705 9.93592 13.732Z" fill="white"/>
<path d="M30.6348 21.0976V6.12549H36.117C37.1794 6.12549 38.059 6.30095 38.7559 6.65186C39.4528 6.99789 39.9741 7.46821 40.3202 8.0628C40.6662 8.65253 40.8392 9.31779 40.8392 10.0586C40.8392 10.6824 40.7246 11.2088 40.4956 11.6377C40.2665 12.0617 39.9595 12.4029 39.5746 12.6612C39.1945 12.9146 38.7754 13.0998 38.3173 13.2168V13.363C38.8144 13.3874 39.2993 13.5482 39.7719 13.8455C40.2495 14.1379 40.6442 14.5546 40.9561 15.0956C41.268 15.6366 41.424 16.2945 41.424 17.0695C41.424 17.8346 41.2436 18.5218 40.883 19.1311C40.5273 19.7354 39.9766 20.2155 39.2311 20.5712C38.4854 20.9221 37.5328 21.0976 36.3729 21.0976H30.6348ZM32.8934 19.1603H36.1536C37.2355 19.1603 38.0103 18.9507 38.4781 18.5316C38.9459 18.1124 39.1799 17.5885 39.1799 16.9598C39.1799 16.487 39.0604 16.0533 38.8216 15.6585C38.5828 15.2637 38.2417 14.9494 37.7983 14.7154C37.3597 14.4815 36.8383 14.3646 36.234 14.3646H32.8934V19.1603ZM32.8934 12.6027H35.9197C36.4265 12.6027 36.8821 12.5052 37.2866 12.3103C37.696 12.1153 38.02 11.8424 38.2588 11.4915C38.5025 11.1357 38.6243 10.7165 38.6243 10.2341C38.6243 9.61508 38.4075 9.09603 37.9737 8.67689C37.54 8.25775 36.8748 8.04818 35.9781 8.04818H32.8934V12.6027Z" fill="white"/>
<path d="M51.0397 16.4404V9.86816H53.2326V21.0972H51.0835V19.1527H50.9666C50.7083 19.7521 50.2941 20.2517 49.7239 20.6513C49.1586 21.046 48.4544 21.2435 47.6113 21.2435C46.8902 21.2435 46.2518 21.0851 45.6962 20.7682C45.1455 20.4466 44.7119 19.9714 44.3951 19.3427C44.0832 18.714 43.9272 17.9366 43.9272 17.0106V9.86816H46.1129V16.7475C46.1129 17.5126 46.3248 18.1219 46.7489 18.5751C47.1728 19.0284 47.7235 19.255 48.4008 19.255C48.8102 19.255 49.2171 19.1527 49.6215 18.948C50.0309 18.7432 50.3696 18.4337 50.6376 18.0195C50.9105 17.6052 51.0445 17.0788 51.0397 16.4404Z" fill="white"/>
<path d="M60.8988 21.3241C59.8121 21.3241 58.8765 21.0779 58.0919 20.5857C57.3122 20.0886 56.7128 19.4038 56.2937 18.5315C55.8746 17.6591 55.665 16.6599 55.665 15.5341C55.665 14.3936 55.8795 13.3872 56.3083 12.5148C56.7372 11.6375 57.3414 10.9528 58.1211 10.4605C58.9009 9.96829 59.8194 9.72217 60.8769 9.72217C61.7298 9.72217 62.4899 9.88057 63.1575 10.1974C63.8251 10.5093 64.3637 10.9479 64.773 11.5133C65.1872 12.0786 65.4334 12.739 65.5113 13.4944H63.3841C63.2672 12.9681 62.9992 12.5148 62.5801 12.1347C62.1658 11.7545 61.6104 11.5644 60.9134 11.5644C60.3043 11.5644 59.7707 11.7253 59.3127 12.0469C58.8594 12.3637 58.5062 12.817 58.2527 13.4068C57.9993 13.9915 57.8727 14.6836 57.8727 15.483C57.8727 16.3017 57.9968 17.0084 58.2454 17.603C58.4939 18.1976 58.8448 18.6581 59.298 18.9847C59.7561 19.3112 60.2945 19.4745 60.9134 19.4745C61.3277 19.4745 61.7029 19.3989 62.0392 19.2479C62.3803 19.0919 62.6654 18.8702 62.8944 18.5826C63.1283 18.2951 63.2916 17.9491 63.3841 17.5445H65.5113C65.4334 18.2707 65.197 18.9189 64.8023 19.4891C64.4076 20.0594 63.8788 20.5078 63.216 20.8343C62.5581 21.1609 61.7857 21.3241 60.8988 21.3241Z" fill="white"/>
<path d="M69.8588 17.2888L69.8442 14.6204H70.2244L74.6979 9.86852H77.3148L72.2126 15.2783H71.869L69.8588 17.2888ZM67.8486 21.0976V6.12549H70.0343V21.0976H67.8486ZM74.9391 21.0976L70.9187 15.7608L72.4245 14.2329L77.6218 21.0976H74.9391Z" fill="white"/>
<path d="M83.6833 21.3241C82.5771 21.3241 81.6244 21.0877 80.8252 20.6149C80.0309 20.1373 79.4169 19.4672 78.9832 18.6046C78.5543 17.737 78.3398 16.7208 78.3398 15.556C78.3398 14.4058 78.5543 13.3921 78.9832 12.5148C79.4169 11.6375 80.0211 10.9528 80.7959 10.4605C81.5757 9.96829 82.487 9.72217 83.5298 9.72217C84.1633 9.72217 84.7773 9.82695 85.3718 10.0365C85.9664 10.2461 86.5 10.5751 86.9727 11.0234C87.4455 11.4718 87.8182 12.0543 88.0911 12.7707C88.364 13.4822 88.5004 14.3474 88.5004 15.3659V16.1409H79.5752V14.5033H86.3587C86.3587 13.9282 86.2418 13.4189 86.0078 12.9754C85.7739 12.527 85.445 12.1737 85.021 11.9153C84.6019 11.657 84.1097 11.5279 83.5444 11.5279C82.9304 11.5279 82.3944 11.679 81.9363 11.9811C81.4831 12.2784 81.1322 12.6683 80.8837 13.1508C80.64 13.6285 80.5182 14.1475 80.5182 14.708V15.9873C80.5182 16.7379 80.6498 17.3763 80.9129 17.9027C81.181 18.4291 81.5537 18.8311 82.0313 19.109C82.5088 19.3819 83.0669 19.5183 83.7053 19.5183C84.1194 19.5183 84.4971 19.4599 84.8382 19.343C85.1794 19.2211 85.4742 19.0407 85.7227 18.8019C85.9712 18.5631 86.1613 18.2682 86.2929 17.9174L88.3615 18.2902C88.1959 18.8994 87.8986 19.4331 87.4698 19.8913C87.0458 20.3445 86.5122 20.6979 85.8689 20.9513C85.2306 21.1998 84.502 21.3241 83.6833 21.3241Z" fill="white"/>
<path d="M96.1665 9.86852V11.6231H90.0337V9.86852H96.1665ZM91.6784 7.17822H93.864V17.8005C93.864 18.2246 93.9274 18.5438 94.0541 18.7582C94.1807 18.9677 94.344 19.1116 94.5438 19.1895C94.7485 19.2626 94.9702 19.2992 95.209 19.2992C95.3844 19.2992 95.5379 19.287 95.6695 19.2626C95.8011 19.2383 95.9035 19.2188 95.9765 19.2042L96.3712 21.0098C96.2446 21.0586 96.0642 21.1074 95.8303 21.1561C95.5965 21.2097 95.3041 21.2389 94.9531 21.2438C94.3782 21.2535 93.8421 21.1512 93.345 20.9368C92.848 20.7223 92.4459 20.3909 92.1389 19.9426C91.8319 19.4942 91.6784 18.9313 91.6784 18.2538V7.17822Z" fill="white"/>
</g>
<defs>
<clipPath id="clip0_2001_285">
<rect width="96.06" height="25.67" fill="white" transform="translate(0.519531 0.419922)"/>
</clipPath>
</defs>
</svg>
