<svg width="1441" height="74" viewBox="0 0 1441 74" fill="none" xmlns="http://www.w3.org/2000/svg">
<g clip-path="url(#clip0_2001_313)">
<g clip-path="url(#clip1_2001_313)">
<path fill-rule="evenodd" clip-rule="evenodd" d="M286.909 2.81001C304.837 6.96601 321.41 16.0688 334.634 29.292L348.335 42.9932C363.197 57.8551 382.354 67.4333 402.889 70.519C384.961 66.363 368.388 57.2602 355.164 44.0371L341.463 30.3359C326.601 15.4739 307.444 5.89573 286.909 2.81001ZM264.519 1.7258H17.41H9.53646H1.66295C1.25531 1.7258 0.924805 1.39531 0.924805 0.987654C0.924805 0.579989 1.25531 0.249512 1.66295 0.249512H9.53646H17.41H264.519H272.393H280.266C306.564 0.249512 331.785 10.6964 350.381 29.292L364.082 42.9932C382.4 61.3119 407.246 71.6032 433.152 71.6032H1423.82H1431.69H1439.56C1439.97 71.6032 1440.3 71.9337 1440.3 72.3414C1440.3 72.749 1439.97 73.0795 1439.56 73.0795H1431.69H1423.82H433.152H425.279H417.405C391.108 73.0795 365.887 62.6326 347.29 44.0371L333.59 30.3359C315.271 12.0172 290.425 1.7258 264.519 1.7258ZM342.507 29.292C329.284 16.0688 312.71 6.96601 294.782 2.81001C315.317 5.89573 334.474 15.4739 349.337 30.3359L363.038 44.0371C376.261 57.2602 392.835 66.363 410.763 70.519C390.228 67.4333 371.07 57.8551 356.208 42.9932L342.507 29.292Z" fill="url(#paint0_linear_2001_313)"/>
</g>
</g>
<defs>
<linearGradient id="paint0_linear_2001_313" x1="1442.52" y1="46.2607" x2="-7.96748" y2="200.371" gradientUnits="userSpaceOnUse">
<stop offset="0.054792" stop-color="#2E6357"/>
<stop offset="0.309967" stop-color="#3FA58E"/>
<stop offset="0.546894" stop-color="#847CFB"/>
<stop offset="0.787465" stop-color="#847CFB"/>
<stop offset="1" stop-color="#847CFB" stop-opacity="0"/>
</linearGradient>
<clipPath id="clip0_2001_313">
<rect width="1440" height="72.83" fill="white" transform="translate(0.859375 0.249512)"/>
</clipPath>
<clipPath id="clip1_2001_313">
<rect width="1439.87" height="72.83" fill="white" transform="translate(0.924805 0.249512)"/>
</clipPath>
</defs>
</svg>
