<svg width="47" height="46" viewBox="0 0 47 46" fill="none" xmlns="http://www.w3.org/2000/svg">
<path d="M18.7835 0.556885H27.9155C32.7594 0.556885 37.405 2.48112 40.8301 5.90629C44.2553 9.33145 46.1795 13.977 46.1795 18.8209C46.1795 23.6648 44.2553 28.3104 40.8301 31.7355C37.405 35.1607 32.7594 37.0849 27.9155 37.0849V45.0754C16.5005 40.5094 0.519531 33.6604 0.519531 18.8209C0.519531 13.977 2.44377 9.33145 5.86894 5.90629C9.2941 2.48112 13.9396 0.556885 18.7835 0.556885ZM23.3495 32.5189H27.9155C29.7143 32.5189 31.4956 32.1646 33.1575 31.4762C34.8194 30.7878 36.3296 29.7788 37.6014 28.5068C38.8734 27.2348 39.8824 25.7248 40.5709 24.0629C41.2592 22.4009 41.6135 20.6197 41.6135 18.8209C41.6135 17.0221 41.2592 15.2408 40.5709 13.5789C39.8824 11.917 38.8734 10.4069 37.6014 9.13494C36.3296 7.86296 34.8194 6.85397 33.1575 6.16559C31.4956 5.4772 29.7143 5.12288 27.9155 5.12288H18.7835C15.1506 5.12288 11.6665 6.56607 9.09758 9.13494C6.52871 11.7038 5.08553 15.188 5.08553 18.8209C5.08553 27.0625 10.7063 32.4413 23.3495 38.1807V32.5189Z" fill="#847CFB"/>
</svg>
